<svg xmlns="http://www.w3.org/2000/svg" viewBox="0 0 640 220" role="img" aria-label="Gyana Vikash English Medium School">
  <rect width="640" height="220" rx="12" fill="#ffffff"/>
  <g transform="translate(18,18)">
    <g transform="translate(86,62)">
      <polygon fill="#2E7D32" points="0,-52 12,-16 52,-16 20,6 32,44 0,22 -32,44 -20,6 -52,-16 -12,-16"/>
      <circle cx="0" cy="0" r="18" fill="none" stroke="#ffffff" stroke-width="3"/>
    </g>
    <g transform="translate(52,78)">
      <path d="M8 28 L68 12 L68 58 L8 74 Z" fill="#8D6E63"/>
      <path d="M68 12 L128 28 L128 74 L68 58 Z" fill="#A1887F"/>
      <path d="M68 12 L68 58" stroke="#F6D365" stroke-width="4"/>
      <path d="M20 40 L60 28" stroke="#EFEBE9" stroke-width="2"/>
      <path d="M76 28 L116 40" stroke="#EFEBE9" stroke-width="2"/>
    </g>
    <path d="M18 132 C48 118, 88 118, 118 132 C88 146, 48 146, 18 132 Z" fill="#C62828"/>
    <text x="68" y="138" text-anchor="middle" fill="#ffffff" font-family="Arial, Helvetica, sans-serif" font-size="13" font-weight="700">GYANA VIKASH</text>
  </g>
  <text x="190" y="72" fill="#2E7D32" font-family="Arial, Helvetica, sans-serif" font-size="42" font-weight="800">GYANA</text>
  <rect x="188" y="86" width="250" height="48" fill="#C62828"/>
  <text x="208" y="121" fill="#ffffff" font-family="Arial, Helvetica, sans-serif" font-size="36" font-weight="800">VIKASH</text>
  <text x="190" y="158" fill="#111111" font-family="Arial, Helvetica, sans-serif" font-size="16" font-weight="700">ENGLISH MEDIUM SCHOOL</text>
  <text x="24" y="198" fill="#6A1B4D" font-family="Georgia, serif" font-size="16" font-style="italic">Quality Education : A Community Commitment</text>
</svg>
